<svg width="32" height="32" viewBox="0 0 312 312" fill="none" xmlns="http://www.w3.org/2000/svg">
<g clip-path="url(#clip0_181_7311)">
<rect x="138.983" y="178.447" width="34" height="12" fill="#CB1B45"/>
<circle cx="89.9827" cy="184.447" r="46" fill="#F8C3CD" stroke="#CB1B45" stroke-width="8"/>
<rect x="64.9914" y="159" width="50" height="50" rx="25" fill="#1B813E"/>
<path d="M98.7414 184C98.7433 184.256 98.6654 184.507 98.5184 184.717C98.3714 184.927 98.1626 185.086 97.9211 185.172L92.9648 186.974L91.1632 191.93C91.0744 192.169 90.9146 192.375 90.7051 192.521C90.4956 192.667 90.2465 192.745 89.9914 192.745C89.7362 192.745 89.4871 192.667 89.2776 192.521C89.0682 192.375 88.9083 192.169 88.8195 191.93L87.0179 186.973L82.0617 185.172C81.8225 185.083 81.6161 184.923 81.4704 184.714C81.3248 184.504 81.2467 184.255 81.2467 184C81.2467 183.745 81.3248 183.496 81.4704 183.286C81.6161 183.077 81.8225 182.917 82.0617 182.828L87.0179 181.027L88.8195 176.07C88.9083 175.831 89.0682 175.625 89.2776 175.479C89.4871 175.333 89.7362 175.255 89.9914 175.255C90.2465 175.255 90.4956 175.333 90.7051 175.479C90.9146 175.625 91.0744 175.831 91.1632 176.07L92.9656 181.027L97.9211 182.828C98.1626 182.914 98.3714 183.073 98.5184 183.283C98.6654 183.493 98.7433 183.744 98.7414 184Z" fill="#EFBB24"/>
<circle cx="221.983" cy="184.447" r="46" fill="#F8C3CD" stroke="#CB1B45" stroke-width="8"/>
<rect x="196.991" y="159" width="50" height="50" rx="25" fill="#1B813E"/>
<path d="M230.741 184C230.743 184.256 230.665 184.507 230.518 184.717C230.371 184.927 230.163 185.086 229.921 185.172L224.965 186.974L223.163 191.93C223.074 192.169 222.915 192.375 222.705 192.521C222.496 192.667 222.247 192.745 221.991 192.745C221.736 192.745 221.487 192.667 221.278 192.521C221.068 192.375 220.908 192.169 220.819 191.93L219.018 186.973L214.062 185.172C213.822 185.083 213.616 184.923 213.47 184.714C213.325 184.504 213.247 184.255 213.247 184C213.247 183.745 213.325 183.496 213.47 183.286C213.616 183.077 213.822 182.917 214.062 182.828L219.018 181.027L220.819 176.07C220.908 175.831 221.068 175.625 221.278 175.479C221.487 175.333 221.736 175.255 221.991 175.255C222.247 175.255 222.496 175.333 222.705 175.479C222.915 175.625 223.074 175.831 223.163 176.07L224.966 181.027L229.921 182.828C230.163 182.914 230.371 183.073 230.518 183.283C230.665 183.493 230.743 183.744 230.741 184Z" fill="#EFBB24"/>
<path d="M37.4827 83.1129C9.21279 119.253 1.26943 165.967 43.4827 189.447" stroke="#CB1B45" stroke-width="8"/>
<path d="M50.1337 84.708C47.0085 103.46 48.2554 111.323 19.9827 120.452" stroke="#CB1B45" stroke-width="8"/>
<path d="M63.4533 84.137C66.8147 113.363 73.1415 124.855 19.9827 120.452" stroke="#CB1B45" stroke-width="8"/>
<path d="M73.9827 121.447C83.4659 75.3118 88.9335 74.2514 98.9827 121.447" stroke="#CB1B45" stroke-width="8"/>
<line y1="-4" x2="17.6582" y2="-4" transform="matrix(0.959074 -0.283155 0.188568 0.98206 78.015 115.447)" stroke="#CB1B45" stroke-width="8"/>
<path d="M102.983 80.8534C107.879 96.508 109.21 105.267 108.983 120.853" stroke="#CB1B45" stroke-width="8"/>
<path d="M125.564 83.51C119.918 92.72 115.87 96.7926 107.027 102.047" stroke="#CB1B45" stroke-width="8"/>
<path d="M128.564 120.325C122.918 111.115 118.87 107.043 110.027 101.788" stroke="#CB1B45" stroke-width="8"/>
<path d="M134.153 81.4468C136.174 135.076 152.603 129.062 154.153 81.4468" stroke="#CB1B45" stroke-width="8"/>
<path d="M174.583 84.4468C176.696 99.2538 176.736 107.785 174.583 123.447" stroke="#CB1B45" stroke-width="8"/>
<line x1="160.983" y1="84.1611" x2="188.983" y2="84.1611" stroke="#CB1B45" stroke-width="8"/>
<path d="M191.983 121.447C201.466 75.3118 206.933 74.2514 216.983 121.447" stroke="#CB1B45" stroke-width="8"/>
<line y1="-4" x2="17.6582" y2="-4" transform="matrix(0.959074 -0.283155 0.188568 0.98206 196.015 115.447)" stroke="#CB1B45" stroke-width="8"/>
<path d="M221.983 80.8534C226.879 96.508 228.21 105.267 227.983 120.853" stroke="#CB1B45" stroke-width="8"/>
<path d="M244.564 83.51C238.918 92.72 234.87 96.7926 226.027 102.047" stroke="#CB1B45" stroke-width="8"/>
<path d="M247.564 120.325C241.918 111.115 237.87 107.043 229.027 101.788" stroke="#CB1B45" stroke-width="8"/>
<path d="M275.392 80.7024C303.662 116.842 311.606 163.557 269.392 187.036" stroke="#CB1B45" stroke-width="8"/>
<path d="M254.684 83.4421C256.265 114.307 253.07 129.378 293.777 120.472" stroke="#CB1B45" stroke-width="8"/>
</g>
<defs>
<clipPath id="clip0_181_7311">
<rect width="312" height="312" fill="white"/>
</clipPath>
</defs>
</svg>
